<svg xmlns="http://www.w3.org/2000/svg" viewBox="0 0 705.14 902.09">
  <defs>
    <style>
      .cls-1{fill:#6d6e71;}.cls-1,.cls-10,.cls-11,.cls-12,.cls-13,.cls-14,.cls-15,.cls-16,.cls-17,.cls-2,.cls-3,.cls-4,.cls-5,.cls-6,.cls-7,.cls-8,.cls-9{stroke:#231f20;stroke-miterlimit:10;stroke-width:4px;}.cls-2{fill:#b93694;}.cls-3{fill:#f58261;}.cls-4{fill:#c8da2c;}.cls-5{fill:#90c73e;}.cls-6{fill:#596cb3;}.cls-7{fill:#0094b4;}.cls-8{fill:#231f20;}.cls-9{fill:#414042;}.cls-10{fill:#fff200;}.cls-11{fill:#00a651;}.cls-12{fill:#ed1c24;}.cls-13{fill:#f26522;}.cls-14{fill:#fff;}.cls-15{fill:#27aae1;}.cls-16{fill:#39b54a;}.cls-17{fill:#ef4136;}
    </style>
  </defs>
  <title>mepo</title>
  <g id="Layer_1" data-name="Layer 1">
    <polyline class="cls-1"
      points="150.48 569.48 413.45 899.36 558.32 796.3 675.97 669.9 702.44 491.5 559.1 240.17 414.27 440.17 184.96 343.62 141.85 390.17 150.48 569.48"/>
    <polyline class="cls-2"
      points="369.44 502.52 391.86 529.83 515.99 521.35 502.2 502.52 559.1 248.37 369.44 502.52 391.86 529.83"/>
    <polyline class="cls-3"
      points="664.27 516.03 502.2 502.52 559.1 248.37 702.44 491.5 664.27 516.03 502.2 502.52 559.1 248.37"/>
    <polygon class="cls-4"
      points="675.97 669.9 502.2 683.28 474.61 631.55 391.86 557.41 675.97 669.9"/>
    <polyline class="cls-5"
      points="391.86 529.83 391.86 557.41 675.97 669.9 702.44 491.5 617.72 540.17 515.99 521.35 391.86 529.83 391.86 557.41"/>
    <polygon class="cls-6"
      points="558.32 796.3 675.97 669.9 502.2 683.28 390.67 726.38 337.7 777.35 421.17 759.14 433.02 762.59 462.08 747.73 558.32 738.69 558.32 796.3"/>
    <polyline class="cls-7"
      points="337.7 777.35 323.52 786.55 413.45 899.36 558.32 796.3 558.32 738.69 473.71 778.1 417.52 785.19 337.7 777.35 323.52 786.55"/>
  </g>
  <g id="Layer_2" data-name="Layer 2">
    <polygon class="cls-8"
      points="171.17 2 50.48 134.23 141.85 403.54 184.96 355.38 414.27 455.26 559.1 248.37 702.44 491.5 702.44 2 171.17 2"/>
    <polygon class="cls-9"
      points="50.48 129.83 141.85 390.17 150.48 569.48 67.72 540.17 2.2 345.35 50.48 269.48 50.48 129.83"/>
    <polygon class="cls-10"
      points="391.86 529.83 236.68 529.83 178.06 475.21 369.44 502.52 391.86 529.83"/>
    <polygon class="cls-11"
      points="515.99 521.35 617.72 540.17 663.13 514.09 502.2 502.52 515.99 521.35"/>
    <polygon class="cls-12"
      points="474.61 631.55 502.2 683.28 391.86 726.38 391.86 667.76 391.86 557.41 474.61 631.55"/>
    <polygon class="cls-13" points="390.67 569.48 390.67 726.38 325.03 674.65 390.67 569.48"/>
    <polygon class="cls-14"
      points="343.64 778.1 421.17 759.14 433.02 762.59 462.08 747.73 558.32 738.69 473.71 778.1 417.52 785.19 343.64 778.1"/>
    <path class="cls-9" d="M766.19,677" transform="translate(-70.97 -136.79)"/>
    <path class="cls-11" d="M797.94,694.21" transform="translate(-70.97 -136.79)"/>
    <path class="cls-11" d="M829,731.8" transform="translate(-70.97 -136.79)"/>
    <polygon class="cls-15"
      points="236.68 529.83 189.91 618.96 325.03 674.65 390.67 569.48 391.86 529.83 236.68 529.83"/>
    <polygon class="cls-16"
      points="323.52 786.55 390.67 726.38 325.03 674.65 189.91 618.96 323.52 786.55"/>
    <polygon class="cls-17"
      points="150.48 569.48 189.91 618.96 236.68 529.83 178.06 475.21 369.44 502.52 414.27 455.26 184.96 355.38 141.85 390.17 150.48 569.48"/>
  </g>
</svg>